<svg xmlns="http://www.w3.org/2000/svg" viewBox="0 0 64 64"><linearGradient id="AtlABdPF1~M3Ohx942kBta" x1="30" x2="30" y1="4.5" y2="52.333" gradientUnits="userSpaceOnUse" spreadMethod="reflect"><stop offset="0" stop-color="#1a6dff"/><stop offset="1" stop-color="#c822ff"/></linearGradient><path fill="url(#AtlABdPF1~M3Ohx942kBta)" d="M30,5C15.663,5,4,16.663,4,31c0,6.767,2.586,13.175,7.286,18.051l1.029,1.048l4.249-4.249 l-1.414-1.414l-2.813,2.813c-1.7-1.846-3.061-3.927-4.096-6.154l3.664-1.518l-0.766-1.848l-3.668,1.52 C6.628,36.943,6.149,34.504,6.046,32H10v-2H6.025c0.105-2.538,0.601-4.977,1.437-7.253l3.677,1.523l0.766-1.848l-3.67-1.521 c1.052-2.259,2.443-4.329,4.112-6.141l2.803,2.803l1.414-1.414l-2.803-2.803c1.812-1.668,3.882-3.06,6.141-4.112l1.52,3.67 l1.848-0.766l-1.523-3.677C24.023,7.626,26,7.13,29,7.025V11h2V7.025c3,0.104,4.976,0.601,7.253,1.437l-1.524,3.677l1.848,0.766 l1.521-3.67c2.259,1.052,4.328,2.443,6.141,4.112l-2.804,2.803l1.414,1.414l2.804-2.803c1.669,1.813,3.06,3.882,4.112,6.141 l-3.67,1.521l0.766,1.848l3.677-1.523c0.836,2.276,1.333,4.715,1.437,7.253H50v2h3.953c-0.103,2.504-0.582,4.944-1.425,7.25 l-3.668-1.52l-0.766,1.848l3.664,1.519c-1.034,2.227-2.396,4.308-4.096,6.153l-2.814-2.813l-1.414,1.414l4.25,4.249l1.035-1.055 C53.415,44.174,56,37.766,56,31C56,16.663,44.337,5,30,5z"/><linearGradient id="AtlABdPF1~M3Ohx942kBtb" x1="30" x2="30" y1="4.5" y2="52.333" gradientUnits="userSpaceOnUse" spreadMethod="reflect"><stop offset="0" stop-color="#1a6dff"/><stop offset="1" stop-color="#c822ff"/></linearGradient><path fill="url(#AtlABdPF1~M3Ohx942kBtb)" d="M29,17v9.101c-2,0.465-4,2.484-4,4.899c0,2.757,2.243,5,5,5s5-2.243,5-5 c0-2.415-2-4.434-4-4.899V17H29z M33,31c0,1.654-1.346,3-3,3s-3-1.346-3-3s1.346-3,3-3S33,29.346,33,31z"/><linearGradient id="AtlABdPF1~M3Ohx942kBtc" x1="30" x2="30" y1="4.5" y2="52.333" gradientUnits="userSpaceOnUse" spreadMethod="reflect"><stop offset="0" stop-color="#1a6dff"/><stop offset="1" stop-color="#c822ff"/></linearGradient><path fill="url(#AtlABdPF1~M3Ohx942kBtc)" d="M36,45H24c-1.654,0-3,1.346-3,3s1.346,3,3,3h12c1.654,0,3-1.346,3-3S37.654,45,36,45z M36,49 H24c-0.552,0-1-0.448-1-1s0.448-1,1-1h12c0.552,0,1,0.448,1,1S36.551,49,36,49z"/><linearGradient id="AtlABdPF1~M3Ohx942kBtd" x1="30" x2="30" y1="28" y2="34.375" gradientUnits="userSpaceOnUse" spreadMethod="reflect"><stop offset="0" stop-color="#6dc7ff"/><stop offset="1" stop-color="#e6abff"/></linearGradient><path fill="url(#AtlABdPF1~M3Ohx942kBtd)" d="M30 28A3 3 0 1 0 30 34A3 3 0 1 0 30 28Z"/><linearGradient id="AtlABdPF1~M3Ohx942kBte" x1="30" x2="30" y1="46.125" y2="50" gradientUnits="userSpaceOnUse" spreadMethod="reflect"><stop offset="0" stop-color="#6dc7ff"/><stop offset="1" stop-color="#e6abff"/></linearGradient><path fill="url(#AtlABdPF1~M3Ohx942kBte)" d="M37,48c0,0.552-0.448,1-1,1H24c-0.552,0-1-0.448-1-1l0,0c0-0.552,0.448-1,1-1h12 C36.552,47,37,47.448,37,48L37,48z"/></svg>